<svg version="1.1" id="Layer_1" xmlns="http://www.w3.org/2000/svg" xmlns:xlink="http://www.w3.org/1999/xlink" x="0px" y="0px"
	 viewBox="0 0 127 26.8" style="enable-background:new 0 0 127 26.8;" xml:space="preserve">
<style type="text/css">
	.ampersand-logo-bg{fill:#FFFFFF;}
</style>
<path class="ampersand-logo-bg" d="M112.4,17.2c0,1.6-0.2,2.4,1.7,2.5v0.5c-0.9,0-1.8-0.1-2.7-0.1c-1,0-1.9,0.1-2.9,0.1v-0.5
	c1.9-0.1,1.7-0.7,1.7-2.4v-3.2c0-1.7,0.1-4.2-2.3-4.2c-1.9,0-3.2,1.5-3.2,3.3v3.9c0,1.6-0.2,2.4,1.7,2.5v0.5c-0.9,0-1.8-0.1-2.7-0.1
	c-1,0-1.9,0.1-2.9,0.1v-0.5c1.9-0.1,1.7-0.7,1.7-2.4v-3.1c0-0.7,0-2.4-0.1-3c-0.2-0.9-0.9-0.8-1.7-0.8V9.9c1.3-0.2,2.2-0.5,3.4-0.8
	l0.3,2.3h0.1c0.9-1.5,2.2-2.3,4-2.3c2.4,0,3.7,1.1,3.7,3.4V17.2z"/>
<path class="ampersand-logo-bg" d="M122.9,12.4c0-1.6-1.5-2.5-3-2.5c-2.7,0-3.4,2.8-3.4,5c0,2.2,0.7,4.8,3.4,4.8c2.2,0,3-1.8,3-3.7V12.4z
	 M123.7,20.4c-0.3-0.6-0.4-1.2-0.5-1.9c-1.1,1.3-2.2,1.9-3.9,1.9c-3.1,0-5.3-2.4-5.3-5.5c0-3,2.1-5.8,5.3-5.8c1.4,0,2.7,0.5,3.6,1.5
	V6.7c0-1.5-0.1-2.3-1.9-2.3V3.9l4-0.8v12.6c0,0.7,0,1.9,0.3,2.6c0.3,0.9,1,0.8,1.8,0.8v0.5L123.7,20.4z"/>
<path class="ampersand-logo-bg" d="M12.6,12L9.3,3.6L6,12H12.6z M5.4,13.7c-0.4,1.1-1.4,3.3-1.4,4.5c0,1.3,1.5,1.2,2.4,1.3v0.7
	c-1.1,0-2.2-0.1-3.3-0.1c-1,0-2,0.1-3.1,0.1v-0.7c1.6-0.2,2.3-0.7,2.8-2.1c0.8-1.9,1.6-3.8,2.5-5.7L9.9,0h1l6,15.1
	c0.4,0.8,1,2.6,1.5,3.3c0.7,0.9,1.5,1,2.6,1.1v0.7c-1.4,0-2.8-0.1-4.2-0.1c-1.4,0-2.9,0.1-4.3,0.1v-0.7c0.8,0,2.3,0,2.3-1.1
	c0-0.7-0.3-1.6-0.6-2.3L13,12.9H5.6L5.4,13.7z"/>
<path class="ampersand-logo-bg" d="M25.7,17.1c0,1.6-0.3,2.4,1.7,2.5v0.5c-0.9,0-1.8-0.1-2.7-0.1c-0.9,0-1.9,0.1-2.8,0.1v-0.5
	c1.9-0.1,1.7-0.7,1.7-2.4v-3.1c0-0.7,0-2.4-0.1-3c-0.2-0.9-0.9-0.8-1.7-0.8V9.8c1.3-0.2,2.2-0.5,3.4-0.8l0.3,2c0.9-1.3,2.1-2,3.8-2
	c1.5,0,2.9,0.5,3.4,2c0.9-1.3,2.2-2,3.8-2c1.1,0,2.2,0.3,2.9,1.2c0.7,0.8,0.7,2.3,0.7,3.3v3.5c0,1.6-0.2,2.4,1.7,2.5v0.5
	C40.8,20,39.9,20,39,20c-0.9,0-1.8,0.1-2.8,0.1v-0.5c1.8-0.1,1.7-0.7,1.7-2.4v-3.1c0-1.7,0.2-4.2-2.3-4.2c-1,0-2,0.7-2.4,1.6
	c-0.3,0.7-0.3,1.6-0.3,2.6v3c0,1.6-0.3,2.4,1.7,2.5v0.5c-0.9,0-1.8-0.1-2.7-0.1C30.9,20,30,20,29,20.1v-0.5c1.9-0.1,1.7-0.7,1.7-2.4
	v-3.1c0-1.7,0.2-4.2-2.3-4.2c-1,0-2,0.7-2.4,1.6c-0.3,0.7-0.3,1.6-0.3,2.6V17.1z"/>
<path class="ampersand-logo-bg" d="M45.1,15.8c0,0.8,0,2.1,0.5,2.7c0.6,0.7,1.5,1,2.4,1c2.7,0,3.5-2.6,3.5-4.9c0-2.3-0.7-4.8-3.4-4.8
	c-1,0-2,0.5-2.5,1.4c-0.5,0.9-0.5,1.8-0.5,2.8V15.8z M44.8,11.1L44.8,11.1c1-1.3,2.1-2.1,3.7-2.1c3.3,0,5.5,2.5,5.5,5.7
	c0,3-2.2,5.6-5.4,5.6c-1.5,0-2.5-0.4-3.6-1.4v4.8c0,1.8-0.2,2.4,1.9,2.5v0.5c-0.9,0-1.8-0.1-2.8-0.1c-1,0-2,0.1-3,0.1v-0.5
	c1.9-0.1,1.7-0.7,1.7-2.4v-9.8c0-0.7,0-2.4-0.1-3c-0.2-0.9-0.9-0.8-1.7-0.8V9.8c1.2-0.2,2.5-0.5,3.6-0.8V11.1z"/>
<path class="ampersand-logo-bg" d="M62.1,12.7c0.4,0,1.2,0.1,1.2-0.5c0-1.5-0.8-2.5-2.4-2.5c-1.9,0-2.6,1.4-2.9,3H62.1z M65.4,18.2
	c-1.2,1.4-2.6,2.1-4.4,2.1c-3.1,0-5.6-2.2-5.6-5.4c0-3.1,2.4-5.9,5.6-5.9c2.4,0,4.8,1.4,4.8,4.1c0,0.3-0.4,0.2-0.6,0.2h-7.2
	l-0.1,1.2c0,2.4,1.2,5,3.9,5c1.3,0,2.4-0.8,3.1-1.8L65.4,18.2z"/>
<path class="ampersand-logo-bg" d="M70.3,17.1v-2.5c0-3.8-0.3-4.8-0.5-5.5c-1.1,0.2-2.2,0.7-3.4,0.8v0.5c0.8,0,1.4-0.1,1.6,0.8
	c0.2,0.6,0.2,2.3,0.2,3v3.1c0,1.6,0.1,2.2-1.7,2.4v0.5c1,0,1.9-0.1,2.9-0.1c0.9,0,1.9,0.1,2.9,0.1v-0.5
	C70.1,19.5,70.3,18.9,70.3,17.1"/>
<path class="ampersand-logo-bg" d="M74,8.6c-2.3,0-2.9,2.7-3.3,4.4c0.4-1.4,1.2-4,3.1-4c0.2,0,0.5,0.1,0.5,0.3c0,0.4-1.2,0.6-1.2,1.9
	c0,0.8,0.7,1.5,1.5,1.5c1.2,0,1.9-0.9,1.9-2C76.4,9.5,75.3,8.6,74,8.6"/>
<path class="ampersand-logo-bg" d="M96.2,17.9c-0.7,0.7-1.8,1.4-2.7,1.4c-1,0-1.6-0.9-1.6-1.8c0-2,2.8-3,4.3-3.7V17.9z M100.2,18.4
	c-0.3,0.3-0.5,0.8-1,0.8c-1,0-0.9-1.8-0.9-2.5v-4.1c0-2.9-1.3-3.6-4-3.6c-0.9,0-2.7,0.2-3.8,0.9c0.5,0.1,0.9,0.4,1.2,0.7
	c0.2-0.9,1.2-1,2.3-1c2,0,2.2,1.2,2.2,2.9c0,0.3,0,0.6-0.2,0.7l-2.5,1.2c-1.6,0.7-4,1.6-4,3.7c0,1.4,1.3,2.2,2.6,2.2
	c1.5,0,3-0.8,4.2-1.8c0.3,1,1.1,1.8,2.1,1.8c0.9,0,1.8-0.8,2.2-1.7L100.2,18.4z"/>
<path class="ampersand-logo-bg" d="M81.1,9.6c0-1.1,0.5-2.2,1.6-2.2c1,0,1.3,1,1.3,1.7c0,1.2-0.5,2.3-1.4,3c1.1-0.2,2.4-1.1,2.4-2.4
	c0-1.6-1.3-3-3.2-3c-2.5,0-4.8,2-4.8,4.7c0,0.8,0.2,1.7,0.6,2.4c0.4,0.7,2.9,2.6,6.4,5.1c0.8,0.5,1.7,1.6,1.7,2.6
	c0,2.2-1.5,2.9-3,2.9h-0.2v0.3c0.4,0,0.9,0.1,1.3,0.1c2.4,0,5.3-1.3,5.3-5.2c0-2.6-1.6-3.9-3.5-5.4c-0.9-0.6-2.1-1.5-3-2.2
	C81.7,11.5,81.1,10.8,81.1,9.6"/>
<path class="ampersand-logo-bg" d="M81.9,20.6c-1.9,0-5-2.3-5-4.4c0-0.7,0.2-1.9,0.9-2.3c-2.1,1-3.9,2.5-3.9,5c0,2.6,2.5,4.8,5,4.8
	c3.1,0,4-1.9,5.3-4.7C83.7,19.9,82.8,20.6,81.9,20.6"/>
<path class="ampersand-logo-bg" d="M89.6,10.2c-2.3,0-2.9,2.7-3.3,4.4c0.4-1.4,1.2-4,3.1-4c0.2,0,0.5,0.1,0.5,0.3c0,0.4-1.2,0.6-1.2,1.9
	c0,0.8,0.7,1.5,1.5,1.5c1.2,0,1.9-0.9,1.9-2C92,11.2,90.9,10.2,89.6,10.2"/>
</svg>
